<?xml version="1.0" encoding="UTF-8"?> <svg xmlns="http://www.w3.org/2000/svg" xmlns:xlink="http://www.w3.org/1999/xlink" id="about_us-01" data-name="about us-01" width="601" height="329" viewBox="0 0 601 329"><defs><linearGradient id="linear-gradient" x1="0.527" y1="0.018" x2="0.477" y2="0.87" gradientUnits="objectBoundingBox"><stop offset="0" stop-color="#ebeff3"></stop><stop offset="1" stop-color="#fff"></stop></linearGradient></defs><path id="Path" d="M7,1.157,4.165,0,0,3.6S4.223,10.625,7,8.65" transform="translate(53 171)" fill="#ffbba4"></path><path id="Path-2" data-name="Path" d="M8.52.4S11.839,9.009,10.8,8.876-.2,9.478,0,8.41,3.123,0,3.123,0Z" transform="translate(56 278)" fill="#0750cc"></path><path id="Path-3" data-name="Path" d="M.487,8A26.789,26.789,0,0,0,.029,2.088C-.581-.975,8.789.236,8.789.236s-.3,4.416,1.449,5.056L12,5.933Z" transform="translate(93 277)" fill="#fccdbd"></path><path id="Path-4" data-name="Path" d="M47.849,96.591s-3.854.023-11.9,2.409a169.146,169.146,0,0,0-4.731-17.54c-2.578-7.314-3.5-18.589-4.78-30.762S21.121,21.081,20.2,22.9s-5.221,30.856-5.221,30.856S10.85,96.129,10.85,97.762s-9.872.659-9.872.659S-.161,78.321.021,64.144-.9,3.091,2.774,0H35.941s7.165,48.7,7.9,56.149S48.851,96.527,47.849,96.591Z" transform="translate(56 182)" fill="#ffca46"></path><path id="Path-5" data-name="Path" d="M11.987,0a17.544,17.544,0,0,0,5.321,3.982C20.9,5.823,23.349,5.823,24,8H0A10.345,10.345,0,0,0,.98,4c0-2.027-.49,0,4.081,0S12.377,2.548,11.987,0Z" transform="translate(92 282)" fill="#0750cc"></path><path id="Path-6" data-name="Path" d="M7,11.923,0,0,1.836,40,7,11.923Z" transform="translate(69 193)" fill="#e99c46"></path><path id="Path-7" data-name="Path" d="M3.011,0,0,31.215,40,34,37.219,4.545,3.011,0Z" transform="translate(54 165)" fill="#a56afa"></path><path id="Path-8" data-name="Path" d="M1.088,12.032s1.8-2.637,1.76-3.225S0,1.867,0,1.867L5.611,0,9,7.557,4,13Z" transform="translate(588 282)" fill="#fccdbd"></path><path id="Path-9" data-name="Path" d="M13.361.274,17,4.565.1,19S-.485,17.439,1.2,14.346A59.5,59.5,0,0,0,4.721,6.368c.5-1.4.679-.523,1.982-.086s5.121-1.443,5.819-3.258S12.515-.729,13.361.274Z" transform="translate(583 286)" fill="#4bd8d9"></path><path id="Path-10" data-name="Path" d="M0,12.563s3.723-.989,4.136-1.577S2.7,0,2.7,0L11,2.874l-.063,12.2-8.9.93Z" transform="translate(552 285)" fill="#fccdbd"></path><path id="Path-11" data-name="Path" d="M5.834,4.9A9.109,9.109,0,0,1,3.252,3.391s-.3.044-1.035-1.36S1.985-.093,1.188.01-.043,1.5,0,3.3A8.979,8.979,0,0,0,1.992,7.92c.694.9,4.2,1.652,5.073,2.515s1.117,1.148,1.117,1.148L8.538,12,12,9.942a11.24,11.24,0,0,1-.847-2.281c-.5-1.7-.523-1.338-1.882-2.687S6.7,1.775,5.916,1.607s-.174,1.5.356,2.281.861,1.349.423,1.29a3.26,3.26,0,0,1-.865-.263" transform="translate(494 143)" fill="#fccdbd"></path><path id="Path-12" data-name="Path" d="M1.531,7,0,5.095,6.724,0,8,1.7,1.531,7Z" transform="translate(501 152)" fill="#f0f6ff"></path><path id="Path-13" data-name="Path" d="M0,0V181.71A16.281,16.281,0,0,0,16.272,198H333.728A16.281,16.281,0,0,0,350,181.71V0Z" transform="translate(131 29)" fill="#fce5be"></path><path id="Path-14" data-name="Path" d="M350,16.146A16.209,16.209,0,0,0,333.728,0H16.272A16.209,16.209,0,0,0,0,16.146V29H350Z" transform="translate(131)" fill="#4c7bf7"></path><path id="Path-15" data-name="Path" d="M24.492,0A24.355,24.355,0,1,0,41.866,7.134,24.5,24.5,0,0,0,24.492,0Z" transform="translate(237 135)" fill="#fcfdff"></path><g id="h0id2t.tif" transform="translate(253 143)"><path id="Path-16" data-name="Path" d="M9.375,0a.757.757,0,0,1,.372.754c0,.894,0,1.791-.022,2.685,0,.166.037.234.2.256a10.127,10.127,0,0,1,2.58.716,8.178,8.178,0,0,1,2.4,1.561.551.551,0,0,1,.138.781q-.674,1.293-1.374,2.568a.517.517,0,0,1-.745.14c-.194-.128-.372-.279-.562-.422A7.071,7.071,0,0,0,9.088,7.617a4.535,4.535,0,0,0-3.376.716,2.357,2.357,0,0,0-.666,3.122,3.363,3.363,0,0,0,1.411,1.237c1.21.569,2.442,1.086,3.667,1.625a12.849,12.849,0,0,1,3.391,1.908,5.158,5.158,0,0,1,1.6,2.01,6.714,6.714,0,0,1,.484,1.885,7.018,7.018,0,0,1-5.521,7.595c-.469.109-.469.1-.473.611,0,.8-.019,1.591,0,2.383a.757.757,0,0,1-.372.754H6.639a.726.726,0,0,1-.409-.754c0-.879,0-1.757.022-2.64,0-.181-.037-.268-.223-.3a10.966,10.966,0,0,1-3.09-1A10.045,10.045,0,0,1,.7,25.239c-.164-.147-.328-.29-.48-.449a.6.6,0,0,1-.067-.871q.83-1.158,1.679-2.3a.524.524,0,0,1,.789-.075,10.136,10.136,0,0,0,2,1.44,6.663,6.663,0,0,0,3.879.86,3.627,3.627,0,0,0,2.144-.98,2.409,2.409,0,0,0,.123-3.345,5.36,5.36,0,0,0-1.742-1.131c-.934-.437-1.884-.845-2.833-1.252A13.725,13.725,0,0,1,2.7,15.163,5.846,5.846,0,0,1,.467,10.838a6.438,6.438,0,0,1,.54-3.073A6.73,6.73,0,0,1,2.708,5.5,7.459,7.459,0,0,1,6.162,3.794c.179-.038.231-.117.231-.3V.758A.756.756,0,0,1,6.814,0Z" transform="translate(0.062 0.151)" fill="#fce5be"></path></g><rect id="Rectangle" width="31" height="76" transform="translate(293 109)" fill="#fcfdff"></rect><rect id="Rectangle-2" data-name="Rectangle" width="31" height="107" transform="translate(338 77)" fill="#fcfdff"></rect><rect id="Rectangle-3" data-name="Rectangle" width="164" height="107" rx="14.95" transform="translate(384 82)" fill="#4c7bf7"></rect><path id="Path-17" data-name="Path" d="M0,.5H150" transform="translate(390 94)" fill="none" stroke="#fff" stroke-miterlimit="10" stroke-width="2"></path><circle id="Oval" cx="2.5" cy="2.5" r="2.5" transform="translate(536 87)" fill="#fff"></circle><circle id="Oval-2" data-name="Oval" cx="4" cy="4" r="4" transform="translate(152 13)" fill="#fff"></circle><circle id="Oval-3" data-name="Oval" cx="4" cy="4" r="4" transform="translate(166 13)" fill="#fff"></circle><circle id="Oval-4" data-name="Oval" cx="4" cy="4" r="4" transform="translate(180 13)" fill="#fff"></circle><path id="Path-18" data-name="Path" d="M1.111,56a1.1,1.1,0,0,1-1.027-.7,1.147,1.147,0,0,1,.245-1.236L19.1,34.717a1.1,1.1,0,0,1,.472-.286L70.747,18.973,88.158.291a1.085,1.085,0,0,1,1.5.018,1.147,1.147,0,0,1,.1,1.528L72.142,20.758a1.1,1.1,0,0,1-.487.305L20.471,36.522,1.9,55.668A1.087,1.087,0,0,1,1.111,56Z" transform="translate(419 119)" fill="#fcfdff"></path><circle id="Oval-5" data-name="Oval" cx="3.5" cy="3.5" r="3.5" transform="translate(416 169)" fill="#fcfdff"></circle><circle id="Oval-6" data-name="Oval" cx="3.5" cy="3.5" r="3.5" transform="translate(436 151)" fill="#fcfdff"></circle><circle id="Oval-7" data-name="Oval" cx="3.5" cy="3.5" r="3.5" transform="translate(486 136)" fill="#fcfdff"></circle><circle id="Oval-8" data-name="Oval" cx="3.5" cy="3.5" r="3.5" transform="translate(506 117)" fill="#fcfdff"></circle><path id="Path-19" data-name="Path" d="M29.206,0,0,10.247S19.708,60.284,40.41,99L50,95.269S39.125,71.738,32.854,48.208a84.645,84.645,0,0,1-1.8-34.306A23.08,23.08,0,0,0,29.206,0Z" transform="translate(549 191)" fill="#4c7bf7"></path><path id="Path-20" data-name="Path" d="M29.851,1.081.443,0S-1.945,55.871,4.367,99H15.585s-.423-27.353,1.585-51.488a85.238,85.238,0,0,1,9.746-32.78A23.068,23.068,0,0,0,29.851,1.081Z" transform="translate(549 194)" fill="#5f8ff9"></path><path id="Path-21" data-name="Path" d="M6.631,0S4.151,1.6,2.864,6.211L0,8.7l2.308,1.592s-1.013,9.141,7.711,6.926L10.567,25,21,20.085l-3.087-7.217-.45-8.892Z" transform="translate(550 116)" fill="#fccdbd"></path><path id="Path-22" data-name="Path" d="M0,79.927S1.853,63.18,2.735,50.239C7.263,48.336,22.457,40.18,25.925,15.6L4.041,38.471C6.633,21.305,12.078,4.216,17.624,1.32c0,0,5.482-3.209,9.029.381S39.787,50,37.708,81Z" transform="translate(545 134)" fill="#ffca46"></path><path id="Path-23" data-name="Path" d="M24,0,1.355,22.455C.734,26.357.269,30.263,0,34,4.7,32.124,20.412,24.122,24,0Z" transform="translate(548 150)" fill="#e99c46"></path><path id="Path-24" data-name="Path" d="M10.755,2.245C15.49-2.829,24.037,1.369,22.9,8.161,22.079,13.025,19.411,20.112,12.577,30c-15.907,23.014-12.2-.9-12.2-.9S3.146,10.423,10.755,2.245Z" transform="translate(550 138)" fill="#ffca46"></path><path id="Path-25" data-name="Path" d="M16,1.282A13.376,13.376,0,0,0,11.551.911c-1.657.167-2.4-.3-3.893-.662-4.4-1.062-.791,1.582.359,2.028.253.1-8.017.745-8.017.745S7.915,6.649,8.581,6.978,15.414,3.9,15.414,3.9Z" transform="translate(500 185)" fill="#fccdbd"></path><path id="Path-26" data-name="Path" d="M47,26.636S39.1,38.744,32.95,42.176C27.195,45.379,0,48,0,48l.384-7.538s25.944-8.133,27.747-10.035S43.06,0,43.06,0" transform="translate(514 144)" fill="#ffca46"></path><path id="Oval-9" data-name="Oval" d="M.5.856C.772.856.993.7.993.5S.772.144.5.144.007.3.007.5.228.856.5.856Z" transform="matrix(0.739, -0.674, 0.674, 0.739, 555.756, 121.228)" fill="#1e416b"></path><path id="Path-27" data-name="Path" d="M0,.023A.663.663,0,0,1,.653.213,1.286,1.286,0,0,1,1,1" transform="translate(557 119)" fill="#1e416b"></path><path id="Path-28" data-name="Path" d="M2,0A2.166,2.166,0,0,1,0,.98" transform="translate(557 126)" fill="#1e416b"></path><path id="Path-29" data-name="Path" d="M7.186,10.477C4.512,13.332,8.722,15.6,9.238,16.143s.727.8,1.325,0l.1-.137c.672-.978,2.193-2,3.588-1.037s.3,2.962-.934,3.681a8.708,8.708,0,0,0-1.857,1.4c.117,1.611,1.563,3.629,2.169,4.4.156.2.254.318.254.318.2.252,2.7.667,3.518-1.015s4.065-1.663,6.992-8.887c1.528-3.762-.3-7.895-.3-7.895-.051-4.61-6.5-7.406-10.4-6.91C10.809.427,9.2,1.064,8.421.8,8.421.8-.15-.836,0,8.259A15.491,15.491,0,0,0,7.186,10.477Z" transform="translate(553 108)" fill="#24b5b1"></path><path id="Path-30" data-name="Path" d="M11,3.171,9.016,0,0,4.527V8L11,3.171Z" transform="translate(561 133)" fill="#fbfdff"></path><path id="Path-31" data-name="Path" d="M25,1.45V8H0S.642,6.174,4.325,4.729A65.6,65.6,0,0,0,13.134.337c1.44-.863.963.05,1.761,1.418s5.448,2.585,7.369,1.522S25-.072,25,1.45Z" transform="translate(539 296)" fill="#4bd8d9"></path><ellipse id="Oval-10" data-name="Oval" cx="300.5" cy="28" rx="300.5" ry="28" transform="translate(0 273)" fill="#1e416b" opacity="0.08"></ellipse><path id="Path-32" data-name="Path" d="M3.254,1.305,4.786,0S19.3,1.305,21.342,2.836s6.316,17.338,13.823,20.906L46.428,8.953,54,15.479s-18.2,23.5-19.571,23.5S22.189,27.31,22.189,27.31L29.018,80,10.132,75.985,0,26.975Z" transform="translate(340 132)" fill="#4bd8d9"></path><path id="Path-33" data-name="Path" d="M13,9.841S9.415,8.934,9.018,8.4,6.5,0,6.5,0L0,2.79l2.482,9.357L11.057,13Z" transform="translate(367 282)" fill="#fccdbd"></path><path id="Path-34" data-name="Path" d="M3.489,5.069A6.44,6.44,0,0,1,8,6.109a36.242,36.242,0,0,1-.271-4.916L0,0V8S2.256,5.2,3.489,5.069Z" transform="translate(333 286)" fill="#fccdbd"></path><path id="Path-35" data-name="Path" d="M35.182,97C33.926,85.358,20.662,22.432,19.776,24.163S14.665,53.69,14.665,53.69,10.617,94.237,10.617,95.8s-9.66.631-9.66.631S-.156,77.2.021,63.635s-.9-58.425,2.7-61.383L31.866,0S42.211,48.866,42.931,56s4.9,38.636,3.921,38.7c0,0-3.775.023-11.655,2.305" transform="translate(331 193)" fill="#5f8ff9"></path><path id="Path-36" data-name="Path" d="M0,1.444V8H25s-.642-1.828-4.325-3.274A65.571,65.571,0,0,1,11.862.337c-1.44-.864-.963.05-1.761,1.419S4.653,4.344,2.731,3.28,0-.08,0,1.444Z" transform="translate(368 290)" fill="#f16663"></path><path id="Path-37" data-name="Path" d="M12.07,6.154C11.288,4.76,9.481,2.248,9.33,1.248V1.119A5.946,5.946,0,0,0,5,.064C3.829.189,1.673,3.015,1.673,3.015,1.673,3.915,0,6.39,0,7.4v2.918s3.72,1.524,13,0A13.952,13.952,0,0,0,12.07,6.154Z" transform="translate(332 291)" fill="#f16663"></path><path id="Path-38" data-name="Path" d="M24.637,21.478,26,41,0,39.452,2.031,0" transform="translate(328 174)" fill="#4bd8d9"></path><path id="Path-39" data-name="Path" d="M6.166,4.9A9.109,9.109,0,0,0,8.748,3.391s.3.044,1.035-1.36S10.015-.093,10.812.01,12.043,1.5,12,3.3A8.979,8.979,0,0,1,10.008,7.92c-.694.9-4.2,1.652-5.073,2.515s-1.117,1.148-1.117,1.148L3.462,12,0,9.942A11.24,11.24,0,0,0,.847,7.661c.5-1.7.523-1.338,1.882-2.687S5.3,1.775,6.084,1.607s.174,1.5-.356,2.281S4.867,5.237,5.3,5.179a3.26,3.26,0,0,0,.865-.263" transform="translate(390 133)" fill="#fccdbd"></path><path id="Path-40" data-name="Path" d="M18,59.066,6.57,62,0,11.9.618,0,12.565,1.507,18,59.066Z" transform="translate(345 132)" fill="#f3f4f9"></path><path id="Path-41" data-name="Path" d="M0,4.048,1.306,0S8.031,3.147,8.582,3.354,11.014,4.889,11,5.466s-.353,4.055-.353,4.055l-2.4-3.01L6.771,10Z" transform="translate(346 128)" fill="#fff"></path><path id="Path-42" data-name="Path" d="M5.933,54l-3.9-5.059L.8,4.948,0,2.894,1.153,0,2.748,2.123,2.386,4.63S7,47.174,7,47.94,5.933,54,5.933,54Z" transform="translate(353 135)" fill="#4bd8d9"></path><path id="Path-43" data-name="Path" d="M7,2.663,1.11,8S.689,7.2,0,5.819L6.135,0Z" transform="translate(334 193)" fill="#fff"></path><path id="Path-44" data-name="Path" d="M6.469,7,8,5.095,1.276,0,0,1.7,6.469,7Z" transform="translate(387 140)" fill="#f0f6ff"></path><path id="Path-45" data-name="Path" d="M.04,28.278C.873,16.429,5.694,8.3,9.836,3.729S20.846.076,20.846.076s2.827,13.662,5.49,20.6S27.666,62.5,27.666,62.5H17.186l-.807-2.958L10.662,66C7.674,58.888-.644,38.029.04,28.278Z" transform="translate(325 133)" fill="#4bd8d9"></path><path id="Path-46" data-name="Path" d="M2.584,0S-.347,8.315.034,9.844,8,37,8,37,2.584,12.389,2.584,9.337Z" transform="translate(334 157)" fill="#24b5b1"></path><path id="Path-47" data-name="Path" d="M5,.65,4.8.685l-.434.954C3.971,2.464,2.923,8,2.923,8h0L0,0Z" transform="translate(351 126)" fill="#ffbba4"></path><path id="Path-48" data-name="Path" d="M1.633,19.033,9.51,25,6.591,16.927l5,.656c6.763-1.088,5.294-6.5,5.251-6.839s2.262-.762,2.157-1A22.921,22.921,0,0,0,16.722,6.6a14.056,14.056,0,0,0-2.5-5.869L7.126,0S2.09,5.547.484,7.012s1.3,7.751,1.3,7.751Z" transform="translate(345 110)" fill="#fccdbd"></path><path id="Oval-11" data-name="Oval" d="M.5.993C.7.993.856.772.856.5S.7.007.5.007.144.228.144.5.3.993.5.993Z" transform="matrix(0.736, -0.677, 0.677, 0.736, 359.288, 117.1)" fill="#1e416b"></path><path id="Path-49" data-name="Path" d="M1,.054A.536.536,0,0,0,.374.175,1.417,1.417,0,0,0,0,1" transform="translate(359 114)" fill="#1e416b"></path><path id="Path-50" data-name="Path" d="M7.04,2.288a3.6,3.6,0,0,1-.1,4.345C11.11,2.64,5.989,0,5.989,0A3.969,3.969,0,0,1,7.723,6.778C5.056,9.638,0,8.92,0,8.92,6.043,7.757,6.946,3.962,7.04,2.288Z" transform="translate(353 104)" fill="#5e33a9"></path><path id="Path-51" data-name="Path" d="M2.941,0c2.791,3.109-.742,7.04-1.4,7.544S.628,8.295,0,7.423C3.128,5.3,2.941,0,2.941,0Z" transform="translate(350 112)" fill="#5e33a9"></path><path id="Path-52" data-name="Path" d="M24,1.91a5.434,5.434,0,0,0-.618-.72c-2.757-2.705-5.124.019-5.921.212S15.128.819,12.309.215C8.487-.6,1.843,1.647,1.368,6.245c0,0-2.193,3.974-1.026,7.856,2.236,7.421,5.466,7.692,6.112,9.44s3.161,1.54,3.383,1.306c0,0,.109-.108.284-.3.665-.72,2.29-2.6,2.554-4.212a8.561,8.561,0,0,0-1.711-1.547c-1.166-.824-2.057-2.913-.587-3.755s2.881.3,3.46,1.336l.086.145c2.671-2.1,2.512-7.332,2.512-7.332C22.927,7.9,23.9,3.744,24,1.91Z" transform="translate(337 103)" fill="#a56afa"></path><path id="Path-53" data-name="Path" d="M0,0S.326,1.063,1,1" transform="translate(359 123)" fill="#1e416b"></path><path id="Path-54" data-name="Path" d="M3.7,0S6.514,1.945,5.917,2.194,1.108,7,1.108,7L0,4.13Z" transform="translate(337 196)" fill="#fccdbd"></path><path id="Path-55" data-name="Path" d="M1.737,16.879.4,15.253S6.092.027,6.332.012A8.666,8.666,0,0,1,15,5.622c.37.953,4,2.913,4,2.913l-.925,2.179c1.4,3.942,1.079,6.215-.736,7.588a6.081,6.081,0,0,1-5.3.844.923.923,0,0,1-.224-.1c-1.713.726-2.036,7.565-2.036,7.565C4.84,28.2,0,24.418,0,24.418,1.78,22.576,1.737,16.879,1.737,16.879Z" transform="translate(69 99)" fill="#fccdbd"></path><path id="Path-56" data-name="Path" d="M18.142,5.394s-5.805,2.55-3.692,9.435c.526,1.711-1.865-.315-1.865-.315-1.66-.678-3.913,3.019.333,4.931a13.237,13.237,0,0,1,1.792.938c.453.327,1.351,1.49-2.369,2.365-4.234.977-8.325-.993-10.929-3.989-3.344-3.843.306-9.148.306-9.148C1.616,3.423,6.361,2.162,9.8.629s5.728.154,6.777.67,1.134,1.5,3.1,1.131C19.67,2.414,21.056,4.582,18.142,5.394Z" transform="translate(62 94)" fill="#0750cc"></path><circle id="Oval-12" data-name="Oval" cx="0.5" cy="0.5" r="0.5" transform="translate(82 106)" fill="#3d224f"></circle><path id="Path-57" data-name="Path" d="M2,0S.769.122,0,2" transform="translate(80 102)" fill="#3d224f"></path><path id="Path-58" data-name="Path" d="M2,.813A1.36,1.36,0,0,1,0,0" transform="translate(83 112)" fill="#3d224f"></path><path id="Path-59" data-name="Path" d="M25.04,61s-1.945-7.579-1.133-21.107S22.913,21.4,22.913,21.4,12.972,31.311,13.3,32.8s9.941,15.358,9.609,16.844-4.155,6.6-5.964,4.953S-1.094,33.452.058,30.151c0,0,20.37-28.068,24.978-29.519S57.693-.031,57.991,5.748,51.117,61,51.117,61Z" transform="translate(33 121)" fill="#a56afa"></path><path id="Path-60" data-name="Path" d="M0,41,1.536,5.405,14.195,0,18,33.222,7.365,41Z" transform="translate(62 140)" fill="#a56afa"></path><path id="Path-61" data-name="Path" d="M7.3,32.717,5.456,0,0,39l8-1.461-.7-4.822Z" transform="translate(73 143)" fill="#5e33a9"></path><path id="Path-62" data-name="Path" d="M32.338,0,40,22.748,7.41,32,0,7.873,32.338,0Z" transform="translate(67 169)" fill="url(#linear-gradient)"></path><path id="Path-63" data-name="Path" d="M14.009,0c0,6.175.761,47.6,1.628,54.212s.178,7.1-2.088,7.937-7.132,1.818-8.518-1.158L3.566,56.156C.364,45.528,0,14.514,0,14.514" transform="translate(77 126)" fill="#a56afa"></path><path id="Path-64" data-name="Path" d="M7.145.1s4.14,6.022,3.839,7.9-5.725,4.8-6.44,4.985-3.528-2.066-3.528-2.066l2.862-.791S-.962,5.026.172,2.169,7.145.1,7.145.1Z" transform="translate(85 186)" fill="#fccdbd"></path><path id="Path-65" data-name="Path" d="M10.865,2s.3-1.074,0-1.143S.23,0,.23,0L0,1.269Z" transform="translate(69 120)" fill="#fff"></path><path id="Path-66" data-name="Path" d="M2.164,0S-.316.2.034,4c0,0,1.1-3.156,2.441-3.254S2.164,0,2.164,0Z" transform="translate(61 104)" fill="#0750cc"></path><path id="Path-67" data-name="Path" d="M3.02,0C4.232,0,6.9,3.262,7.571,3.218L8.907,4.4l3.661-1.826h0a5.124,5.124,0,0,0,.582-.189c1.464-.591.882,1.207-.582,2.94-2,2.357-3.928,2.816-4.3,2.635S3.273,4.4,2,4.94c-2.014.849-2-.889-2-.889S1.809,0,3.02,0Z" transform="translate(222 137)" fill="#ffbba4"></path><path id="Path-68" data-name="Path" d="M0,10.2s3.438-.814,3.818-1.309S4.887,0,4.887,0L11,2.825l-.907,9.422L1.877,13Z" transform="translate(151 272)" fill="#fccdbd"></path><path id="Path-69" data-name="Path" d="M3.962,5.089A5.1,5.1,0,0,0,0,6.128a41.453,41.453,0,0,0,.236-4.92L7,0V8S5.032,5.214,3.962,5.089Z" transform="translate(176 275)" fill="#fccdbd"></path><path id="Path-70" data-name="Path" d="M24,1.27V7H0S.614,5.4,4.155,4.135A65.616,65.616,0,0,0,12.618.291c1.384-.747.924.045,1.693,1.244S19.544,3.8,21.388,2.868,24-.06,24,1.27Z" transform="translate(139 280)" fill="#ffca46"></path><path id="Path-71" data-name="Path" d="M.839,5.021c.736-1.14,2.389-3.19,2.529-4V.915A6.051,6.051,0,0,1,7.377.055c1.082.1,3.077,2.423,3.077,2.423C10.454,3.215,12,5.234,12,6.064V8.447s-3.434,1.243-12,0A9.188,9.188,0,0,1,.839,5.021Z" transform="translate(173 281)" fill="#ffca46"></path><path id="Path-72" data-name="Path" d="M3.031,106.692h7.847S16.643,44.181,17.3,32.174c0,0,3.528,38.672,4.634,54.033s1.546,20.485,1.546,20.485,7.5.693,8.382,0,2.8-98.02,1.9-104.024S0,2.668,0,2.668,2.435,96.488,3.031,106.692Z" transform="translate(152 172)" fill="#f16663"></path><path id="Path-73" data-name="Path" d="M.538,2.934C1.017,3.511,7.49.13,8,0,5.712.548,2.935,1.139,0,1.593A7.9,7.9,0,0,0,.538,2.934Z" transform="translate(180 194)" fill="none"></path><path id="Path-74" data-name="Path" d="M44.468,68.216C48.374,67.35,51,66.589,51,66.589s-7-15.966-7.943-18.714-1.885-14.133-.941-19.493,2.807-22.575.636-25.439S23.813-.806,16.815.783,9.007,8.764,9.489,26.17,0,64.643,0,64.643c1.831,2.41,5.71,3.749,9.489,4.525h0L16.005,70,12.658,57.168,12.192,51.8l17.139.806,2.02,5.068s2.8,8.7,4.11,12.183c3.3-.472,6.431-1.087,9.007-1.657h0Z" transform="translate(145 125)" fill="#4c7bf7"></path><path id="Path-75" data-name="Path" d="M12.544,7.455c2.245,4.01,12.4,22.4,12.4,22.4l13.12-13.788C40.1,16.718,42.4,18.99,44,19.48c-3.367,5.276-15.507,23.872-19.334,23.515C20.206,42.579,5.294,24.061,5.294,24.061L0,0S10.3,3.445,12.544,7.455Z" transform="translate(182 125)" fill="#4c7bf7"></path><path id="Path-76" data-name="Path" d="M10.983,0C9.772,0,7.1,3.269,6.433,3.224L5.093,4.4,1.432,2.567h0A5.117,5.117,0,0,1,.85,2.378c-1.464-.592-.882,1.209.582,2.946,2,2.362,3.928,2.821,4.3,2.64S10.727,4.4,12,4.933c2.014.85,2-.891,2-.891S12.191,0,10.983,0Z" transform="translate(112 136)" fill="#ffbba4"></path><path id="Path-77" data-name="Path" d="M31.456,7.467c-2.245,4.008-12.4,22.394-12.4,22.394L5.934,16.077C3.9,16.727,1.6,19,0,19.488c3.367,5.274,15.507,23.863,19.334,23.507,4.459-.416,19.372-18.927,19.372-18.927L44,0S33.686,3.455,31.456,7.467Z" transform="translate(122 124)" fill="#4c7bf7"></path><path id="Path-78" data-name="Path" d="M13.809,34.416c.138-5.933.627-18.824,2.273-22.256C17.451,9.3,20.177,4.42,22,1.235c0,0-8.941-2.78-13.131,0-.308.2-.616.416-.927.638C7.192,9.063,3,28.547.749,38.711c-.043.382-.087.764-.134,1.145A88.29,88.29,0,0,0,.137,55.179l3.551.168-.245-1.81.245,1.81,8.732.409h0L17.672,56a66.331,66.331,0,0,1-3.91-15.078,29.085,29.085,0,0,1,.047-6.506Z" transform="translate(156 122)" fill="#f3f4f9"></path><path id="Path-79" data-name="Path" d="M3.667,2,5,.7A29.882,29.882,0,0,1,0,0H0Z" transform="translate(114 139)" fill="#f7a68f"></path><path id="Path-80" data-name="Path" d="M5.876,0,0,3.489S.327,4.047.9,5C2.544,4.463,7,1.258,7,1.258Z" transform="translate(121 138)" fill="#e5e5e5"></path><path id="Path-81" data-name="Path" d="M5.569,0V3.421L5.034,7.071C3.608,16.795-.132,42.663,0,43.644A76.179,76.179,0,0,0,2.767,51s3.922-4.14,4.406-5.447c.3-.844.845-18.14,1.187-30.305.189-6.687.321-11.826.321-11.826h0L10,.4Z" transform="translate(162 127)" fill="#5f8ff9"></path><path id="Path-82" data-name="Path" d="M1.124,0,7,3.489S6.673,4.047,6.1,5C4.456,4.463,0,1.258,0,1.258Z" transform="translate(220 140)" fill="#e5e5e5"></path><path id="Path-83" data-name="Path" d="M5.516,5.755,0,9,1.666,2.435S4.855.154,6.078.082s8.5-.511,9.687,1.751S13.225,9,13.225,9Z" transform="translate(163 122)" fill="#fff"></path><path id="Path-84" data-name="Path" d="M0,16s5.027-.714,7.365-7.994S4.833,0,4.833,0Z" transform="translate(175 103)" fill="#f16663"></path><path id="Path-85" data-name="Path" d="M8,0S4.291,3.918,0,4.159a22.172,22.172,0,0,0,7.883.7A24.235,24.235,0,0,1,8,0Z" transform="translate(169 116)" fill="#f7a68f"></path><path id="Path-86" data-name="Path" d="M6.262,19.669c4.059-.219,7.573-3.715,7.573-3.715.33-.319,4.216-6.085,2.89-7.526C15.288,6.846,16.192,0,14.767,0S1.989,3.841,1.989,3.841,0,6.831,0,13.5c0,3.759,2.422,6.055,4.507,6.166v4.562s-.659,1.244-.276,2.013,3.787,2.1,9.6-2.845c0,0-.069-1.486-.111-3.1A22.321,22.321,0,0,1,6.262,19.669Z" transform="translate(163 100)" fill="#ffbba4"></path><path id="Path-87" data-name="Path" d="M21.192,12.7s-2.149-1.356-2.984-.468-.493.881-1.224,1.685-1.333-4.546-1.48-5.8-.245-2.112-1.3-1.641S6.294,11.415,2.957,9.792-.319,5.823.4,4.639C1.9,2.143,3.8,3.7,5.913,1.873S12.255-.8,17.151.985,22.905,9.036,21.192,12.7Z" transform="translate(160 96)" fill="#f16663"></path><path id="Oval-13" data-name="Oval" d="M.5.856C.772.856.993.7.993.5S.772.144.5.144.007.3.007.5.228.856.5.856Z" transform="translate(169.678 110.233) rotate(-81.13)" fill="#1e416b"></path><path id="Path-88" data-name="Path" d="M0,.054A.536.536,0,0,1,.626.175,1.417,1.417,0,0,1,1,1" transform="translate(170 107)" fill="#1e416b"></path><path id="Path-89" data-name="Path" d="M1,0S.674,1.063,0,1" transform="translate(170 115)" fill="#1e416b"></path><path id="Oval-14" data-name="Oval" d="M.5.985C.693.985.849.768.849.5S.693.015.5.015.151.232.151.5.307.985.5.985Z" transform="translate(165.199 109.315) rotate(-3.02)" fill="#1e416b"></path><path id="Path-90" data-name="Path" d="M2,.474A1.026,1.026,0,0,0,.931.029,1.537,1.537,0,0,0,0,1" transform="translate(165 107)" fill="#1e416b"></path><path id="Path-91" data-name="Path" d="M2,0A17.685,17.685,0,0,1,.31,1.958L.286,1.771A17.707,17.707,0,0,1,2,3,18.273,18.273,0,0,1,.129,1.977L0,1.9l.1-.11A18.189,18.189,0,0,1,2,0Z" transform="translate(166 110)" fill="#1e416b"></path><path id="Path-92" data-name="Path" d="M11.261.627A10.572,10.572,0,0,0,7.68,0c-1.7,3.167-4.258,8.02-5.549,10.865C.592,14.282.133,27.1,0,33c.655-5.639,2.9-10.143,5.549-14.351,3.614-5.7,4.391-8.085,4.391-8.085L8,7.648l3.23.794S12.941,1.686,11.261.627Z" transform="translate(171 123)" fill="#5f8ff9"></path><path id="Path-93" data-name="Path" d="M0,6.462,3.64,7.774,0,8.157C2.119,16.441,1.917,26.327.627,37,2.932,26.8,7.232,7.221,8,0A84.331,84.331,0,0,0,0,6.462Z" transform="translate(156 123)" fill="#5f8ff9"></path><path id="Path-94" data-name="Path" d="M0,0A43.031,43.031,0,0,1,3.995,1.667L3.151,2Z" transform="translate(229 139)" fill="#f7a68f"></path><path id="Path-95" data-name="Path" d="M7,1.686,0,13,7,0V1.686Z" transform="translate(555 139)" fill="#e99c46"></path><rect id="Rectangle-4" data-name="Rectangle" width="119" height="3" rx="1.5" transform="translate(174 56)" fill="#fff"></rect><rect id="Rectangle-5" data-name="Rectangle" width="91" height="3" rx="1.5" transform="translate(174 68)" fill="#fff"></rect></svg> 