<svg height="512" viewBox="0 0 64 64" width="512" xmlns="http://www.w3.org/2000/svg"><g id="Support_service" data-name="Support service"><path d="m11 61h8v-3-12-3h-8v2 14z" fill="#9bc9ff"/><path d="m3 45h8v14h-8z" fill="#9bc9ff"/><path d="m29 24v6h4.46a9.244 9.244 0 0 0 .68 1.62l-3.16 3.16 4.24 4.24 3.16-3.16a9.244 9.244 0 0 0 1.62.68v4.46h6v-4.46a9.244 9.244 0 0 0 1.62-.68l3.16 3.16 4.24-4.24-3.16-3.16a9.244 9.244 0 0 0 .68-1.62h4.46v-6h-4.46a9.244 9.244 0 0 0 -.68-1.62l3.16-3.16-4.24-4.24-3.16 3.16a9.244 9.244 0 0 0 -1.62-.68v-4.46h-6v4.46a9.244 9.244 0 0 0 -1.62.68l-3.16-3.16-4.24 4.24 3.16 3.16a9.244 9.244 0 0 0 -.68 1.62zm14-2a5 5 0 1 1 -5 5 5 5 0 0 1 5-5z" fill="#9bc9ff"/><path d="m7 15v4h3.35a3.228 3.228 0 0 0 .24.58l-2.37 2.37 2.83 2.83 2.37-2.37a3.228 3.228 0 0 0 .58.24v3.35h4v-3.35a3.228 3.228 0 0 0 .58-.24l2.37 2.37 2.83-2.83-2.37-2.37a3.228 3.228 0 0 0 .24-.58h3.35v-4h-3.35a3.228 3.228 0 0 0 -.24-.58l2.37-2.37-2.83-2.83-2.37 2.37a3.228 3.228 0 0 0 -.58-.24v-3.35h-4v3.35a3.228 3.228 0 0 0 -.58.24l-2.37-2.37-2.83 2.83 2.37 2.37a3.228 3.228 0 0 0 -.24.58zm9-1a3 3 0 1 1 -3 3 3 3 0 0 1 3-3z" fill="#9bc9ff"/><g fill="#1e81ce"><path d="m61.148 44.9a3.995 3.995 0 0 0 -5.458-1.469l-9.751 5.629a3.964 3.964 0 0 0 -2.259-1.629l-14.92-4a7 7 0 0 0 -3.51-.03l-5.25 1.318v-1.719a1 1 0 0 0 -1-1h-8a1 1 0 0 0 -1 1v1h-7a1 1 0 0 0 -1 1v14a1 1 0 0 0 1 1h7v1a1 1 0 0 0 1 1h8a1 1 0 0 0 1-1v-1.382l1.286.643a7.027 7.027 0 0 0 3.13.739h14.977a7.011 7.011 0 0 0 3.5-.938l16.8-9.7a4.011 4.011 0 0 0 1.455-5.462zm-57.148 13.1v-12h6v12zm14 2h-6v-16h6zm40.69-11.366-16.8 9.7a5 5 0 0 1 -2.5.67h-14.974a5.027 5.027 0 0 1 -2.235-.528l-2.181-1.094v-10.6l5.734-1.434a5.025 5.025 0 0 1 2.508.021l14.92 4a2 2 0 1 1 -1.035 3.863l-11.927-3.198a1 1 0 0 0 -.517 1.932l11.925 3.2a4.043 4.043 0 0 0 1.042.138 3.952 3.952 0 0 0 3.965-4.317l10.072-5.815a2.035 2.035 0 0 1 2.726.732 2.008 2.008 0 0 1 -.723 2.73z"/><path d="m29 31h3.753c.057.144.114.283.174.418l-2.654 2.655a1 1 0 0 0 0 1.414l4.24 4.24a1 1 0 0 0 1.414 0l2.654-2.654c.136.059.275.117.419.174v3.753a1 1 0 0 0 1 1h6a1 1 0 0 0 1-1v-3.753c.144-.057.283-.115.419-.174l2.654 2.654a1.029 1.029 0 0 0 1.414 0l4.24-4.24a1 1 0 0 0 0-1.414l-2.654-2.655c.06-.135.117-.274.174-.418h3.753a1 1 0 0 0 1-1v-6a1 1 0 0 0 -1-1h-3.753c-.057-.144-.114-.283-.174-.419l2.654-2.654a1 1 0 0 0 0-1.414l-4.24-4.24a1 1 0 0 0 -1.414 0l-2.654 2.654c-.136-.059-.275-.117-.419-.174v-3.753a1 1 0 0 0 -1-1h-6a1 1 0 0 0 -1 1v3.753c-.144.057-.283.115-.419.174l-2.654-2.654a1.029 1.029 0 0 0 -1.414 0l-4.24 4.24a1 1 0 0 0 0 1.414l2.654 2.654c-.06.136-.117.275-.174.419h-3.753a1 1 0 0 0 -1 1v6a1 1 0 0 0 1 1zm1-6h3.46a1 1 0 0 0 .952-.694 8.225 8.225 0 0 1 .605-1.446 1 1 0 0 0 -.17-1.187l-2.447-2.453 2.825-2.826 2.453 2.453a1 1 0 0 0 1.188.17 8.112 8.112 0 0 1 1.446-.605 1 1 0 0 0 .688-.952v-3.46h4v3.46a1 1 0 0 0 .693.952 8.112 8.112 0 0 1 1.446.605 1 1 0 0 0 1.188-.17l2.453-2.453 2.825 2.826-2.452 2.453a1 1 0 0 0 -.17 1.187 8.225 8.225 0 0 1 .605 1.446 1 1 0 0 0 .952.694h3.46v4h-3.46a1 1 0 0 0 -.952.694 8.225 8.225 0 0 1 -.605 1.446 1 1 0 0 0 .17 1.187l2.452 2.453-2.825 2.826-2.453-2.453a1 1 0 0 0 -1.188-.17 8.112 8.112 0 0 1 -1.446.605 1 1 0 0 0 -.693.952v3.46h-4v-3.46a1 1 0 0 0 -.693-.952 8.112 8.112 0 0 1 -1.446-.605 1 1 0 0 0 -1.188.17l-2.453 2.453-2.82-2.826 2.452-2.453a1 1 0 0 0 .17-1.187 8.225 8.225 0 0 1 -.605-1.446 1 1 0 0 0 -.957-.694h-3.46z"/><path d="m43 33a6 6 0 1 1 6-6 6.006 6.006 0 0 1 -6 6zm0-10a4 4 0 1 0 4 4 4 4 0 0 0 -4-4z"/><path d="m18 27h-4a1 1 0 0 1 -1-1v-1.756l-1.243 1.243a1 1 0 0 1 -1.414 0l-2.83-2.83a1 1 0 0 1 0-1.414l1.243-1.243h-1.756a1 1 0 0 1 -1-1v-4a1 1 0 0 1 1-1h1.756l-1.243-1.243a1 1 0 0 1 0-1.414l2.83-2.83a1 1 0 0 1 1.414 0l1.243 1.243v-1.756a1 1 0 0 1 1-1h4a1 1 0 0 1 1 1v1.756l1.243-1.243a1 1 0 0 1 1.414 0l2.83 2.83a1 1 0 0 1 0 1.414l-1.243 1.243h1.756a1 1 0 0 1 1 1v4a1 1 0 0 1 -1 1h-1.756l1.243 1.243a1 1 0 0 1 0 1.414l-2.83 2.83a1 1 0 0 1 -1.414 0l-1.243-1.243v1.756a1 1 0 0 1 -1 1zm-3-2h2v-2.35a1 1 0 0 1 .713-.958 2.306 2.306 0 0 0 .4-.168 1 1 0 0 1 1.171.179l1.663 1.663 1.416-1.416-1.663-1.663a1 1 0 0 1 -.179-1.171 2.234 2.234 0 0 0 .169-.406 1 1 0 0 1 .96-.71h2.35v-2h-2.35a1 1 0 0 1 -.957-.71 2.234 2.234 0 0 0 -.169-.406 1 1 0 0 1 .179-1.171l1.663-1.663-1.416-1.416-1.663 1.666a1 1 0 0 1 -1.171.179 2.306 2.306 0 0 0 -.4-.168 1 1 0 0 1 -.716-.961v-2.35h-2v2.35a1 1 0 0 1 -.713.958 2.306 2.306 0 0 0 -.4.168 1 1 0 0 1 -1.171-.179l-1.666-1.663-1.416 1.416 1.666 1.663a1 1 0 0 1 .179 1.171 2.234 2.234 0 0 0 -.169.406 1 1 0 0 1 -.957.71h-2.353v2h2.35a1 1 0 0 1 .957.71 2.234 2.234 0 0 0 .169.406 1 1 0 0 1 -.179 1.171l-1.663 1.663 1.416 1.416 1.663-1.666a1 1 0 0 1 1.171-.179 2.306 2.306 0 0 0 .4.168 1 1 0 0 1 .716.961z"/><path d="m16 21a4 4 0 1 1 4-4 4 4 0 0 1 -4 4zm0-6a2 2 0 1 0 2 2 2 2 0 0 0 -2-2z"/></g></g></svg>